<svg width="24" height="24" viewBox="0 0 24 24" fill="none" xmlns="http://www.w3.org/2000/svg">
<g clip-path="url(#clip0)">
<path d="M4.5 8.25C3.50544 8.25 2.55161 7.85491 1.84835 7.15165C1.14509 6.44839 0.75 5.49456 0.75 4.5C0.75 3.50544 1.14509 2.55161 1.84835 1.84835C2.55161 1.14509 3.50544 0.749999 4.5 0.749999L17.25 0.75" stroke="#000001" stroke-width="1.5" stroke-linecap="round" stroke-linejoin="round"/>
<path d="M4.5 15.75C3.50544 15.75 2.55161 15.3549 1.84835 14.6517C1.14509 13.9484 0.75 12.9946 0.75 12C0.75 11.0054 1.14509 10.0516 1.84835 9.34835C2.55161 8.64509 3.50544 8.25 4.5 8.25" stroke="#000001" stroke-width="1.5" stroke-linecap="round" stroke-linejoin="round"/>
<path d="M17.25 23.25L4.5 23.25C3.50544 23.25 2.55161 22.8549 1.84835 22.1517C1.14509 21.4484 0.75 20.4946 0.75 19.5C0.75 18.5054 1.14509 17.5516 1.84835 16.8483C2.55161 16.1451 3.50544 15.75 4.5 15.75" stroke="#000001" stroke-width="1.5" stroke-linecap="round" stroke-linejoin="round"/>
<path d="M17.25 8.25C16.2554 8.25 15.3016 7.85491 14.5983 7.15165C13.8951 6.44839 13.5 5.49456 13.5 4.5C13.5 3.50544 13.8951 2.55161 14.5983 1.84835C15.3016 1.14509 16.2554 0.75 17.25 0.75L23.25 0.75" stroke="#000001" stroke-width="1.5" stroke-linecap="round" stroke-linejoin="round"/>
<path d="M17.25 15.75C16.2554 15.75 15.3016 15.3549 14.5983 14.6517C13.8951 13.9484 13.5 12.9946 13.5 12C13.5 11.0054 13.8951 10.0516 14.5983 9.34835C15.3016 8.64509 16.2554 8.25 17.25 8.25" stroke="#000001" stroke-width="1.5" stroke-linecap="round" stroke-linejoin="round"/>
<path d="M23.25 23.25L17.25 23.25C16.2554 23.25 15.3016 22.8549 14.5983 22.1517C13.8951 21.4484 13.5 20.4946 13.5 19.5C13.5 18.5054 13.8951 17.5516 14.5983 16.8483C15.3016 16.1451 16.2554 15.75 17.25 15.75" stroke="#000001" stroke-width="1.5" stroke-linecap="round" stroke-linejoin="round"/>
<path d="M23.25 4.5L16.5 4.5" stroke="#000001" stroke-width="1.5" stroke-linecap="round" stroke-linejoin="round"/>
<path d="M23.25 12L16.5 12" stroke="#000001" stroke-width="1.5" stroke-linecap="round" stroke-linejoin="round"/>
<path d="M23.25 19.5L16.5 19.5" stroke="#000001" stroke-width="1.5" stroke-linecap="round" stroke-linejoin="round"/>
<path d="M4.5 8.25L23.25 8.25" stroke="#000001" stroke-width="1.5" stroke-linecap="round" stroke-linejoin="round"/>
<path d="M4.5 15.75L23.25 15.75" stroke="#000001" stroke-width="1.5" stroke-linecap="round" stroke-linejoin="round"/>
</g>
<defs>
<clipPath id="clip0">
<rect width="24" height="24" fill="white" transform="translate(24) rotate(90)"/>
</clipPath>
</defs>
</svg>
