<svg width="16" height="16" viewBox="0 0 16 16" fill="none" xmlns="http://www.w3.org/2000/svg">
<path d="M15.5889 14.4127L11.2363 10.06C13.3059 7.33945 12.7781 3.45627 10.0576 1.38666C7.33703 -0.682932 3.45386 -0.155226 1.38425 2.56533C-0.685343 5.28588 -0.157636 9.16906 2.56292 11.2387C4.77719 12.9231 7.84329 12.9231 10.0576 11.2387L14.4103 15.5913C14.7381 15.9111 15.2611 15.9111 15.5889 15.5913C15.9141 15.2657 15.9141 14.7383 15.5889 14.4127ZM1.83292 6.33333V6.33333C1.83292 3.84805 3.84764 1.83333 6.33292 1.83333C8.8182 1.83333 10.8329 3.84805 10.8329 6.33333C10.8329 8.81861 8.8182 10.8333 6.33292 10.8333C3.84886 10.8304 1.83586 8.81739 1.83292 6.33333L1.83292 6.33333Z" fill="#4F4F4F"/>
</svg>
